<mxfile host="app.diagrams.net" modified="2022-11-10T18:56:08.457Z" agent="5.0 (Windows NT 10.0; Win64; x64) AppleWebKit/537.36 (KHTML, like Gecko) Chrome/107.0.0.0 Safari/537.36" etag="Q_O8cWxeA6A0N45KQons" version="20.5.3" type="github">
  <diagram id="nmc3Xu9c7lwv_VHEQK1O" name="Page-1">
    <mxGraphModel dx="1193" dy="537" grid="1" gridSize="11" guides="1" tooltips="1" connect="1" arrows="1" fold="1" page="1" pageScale="1" pageWidth="827" pageHeight="1169" background="#F1FAEE" math="0" shadow="1">
      <root>
        <mxCell id="0" />
        <mxCell id="1" parent="0" />
        <mxCell id="N7hfXW6838dOeCNQ4Gz7-1" value="Request From Frontend" style="rounded=0;arcSize=10;whiteSpace=wrap;html=1;align=center;fillColor=#A8DADC;strokeColor=#457B9D;fontColor=#1D3557;" parent="1" vertex="1">
          <mxGeometry y="110" width="120" height="50" as="geometry" />
        </mxCell>
        <mxCell id="N7hfXW6838dOeCNQ4Gz7-2" value="" style="endArrow=classic;startArrow=classic;html=1;rounded=0;labelBackgroundColor=#F1FAEE;strokeColor=#457B9D;fontColor=#1D3557;" parent="1" edge="1">
          <mxGeometry width="50" height="50" relative="1" as="geometry">
            <mxPoint x="59.58" y="210" as="sourcePoint" />
            <mxPoint x="59.58" y="160" as="targetPoint" />
          </mxGeometry>
        </mxCell>
        <mxCell id="N7hfXW6838dOeCNQ4Gz7-3" value="" style="endArrow=classic;startArrow=classic;html=1;rounded=0;labelBackgroundColor=#F1FAEE;strokeColor=#457B9D;fontColor=#1D3557;" parent="1" edge="1">
          <mxGeometry width="50" height="50" relative="1" as="geometry">
            <mxPoint x="60" y="210" as="sourcePoint" />
            <mxPoint x="150" y="210" as="targetPoint" />
          </mxGeometry>
        </mxCell>
        <mxCell id="N7hfXW6838dOeCNQ4Gz7-4" value="Spring&amp;nbsp; Boot&amp;nbsp; API" style="rounded=0;whiteSpace=wrap;html=1;strokeColor=#457B9D;fillColor=#A8DADC;fontColor=#1D3557;" parent="1" vertex="1">
          <mxGeometry x="210" y="30" width="230" height="30" as="geometry" />
        </mxCell>
        <mxCell id="N7hfXW6838dOeCNQ4Gz7-5" value="Repository/Dao" style="rounded=0;whiteSpace=wrap;html=1;strokeColor=#457B9D;fillColor=#A8DADC;fontColor=#1D3557;" parent="1" vertex="1">
          <mxGeometry x="210" y="310" width="190" height="50" as="geometry" />
        </mxCell>
        <mxCell id="N7hfXW6838dOeCNQ4Gz7-6" value="Presentation&amp;nbsp;&lt;br&gt;Layers&lt;br&gt;(Controllers)" style="text;html=1;align=center;verticalAlign=middle;resizable=0;points=[];autosize=1;strokeColor=none;fillColor=none;fontColor=#1D3557;rounded=0;" parent="1" vertex="1">
          <mxGeometry x="140" y="165" width="90" height="60" as="geometry" />
        </mxCell>
        <mxCell id="N7hfXW6838dOeCNQ4Gz7-11" value="" style="endArrow=classic;startArrow=classic;html=1;rounded=0;labelBackgroundColor=#F1FAEE;strokeColor=#457B9D;fontColor=#1D3557;" parent="1" edge="1">
          <mxGeometry width="50" height="50" relative="1" as="geometry">
            <mxPoint x="320" y="300" as="sourcePoint" />
            <mxPoint x="320" y="225" as="targetPoint" />
          </mxGeometry>
        </mxCell>
        <mxCell id="N7hfXW6838dOeCNQ4Gz7-13" value="" style="endArrow=classic;startArrow=classic;html=1;rounded=0;labelBackgroundColor=#F1FAEE;strokeColor=#457B9D;fontColor=#1D3557;" parent="1" source="N7hfXW6838dOeCNQ4Gz7-6" edge="1">
          <mxGeometry width="50" height="50" relative="1" as="geometry">
            <mxPoint x="230" y="245" as="sourcePoint" />
            <mxPoint x="290" y="200" as="targetPoint" />
            <Array as="points">
              <mxPoint x="240" y="200" />
              <mxPoint x="250" y="200" />
            </Array>
          </mxGeometry>
        </mxCell>
        <mxCell id="N7hfXW6838dOeCNQ4Gz7-14" value="Service&amp;nbsp;&lt;br&gt;Layers" style="text;html=1;align=center;verticalAlign=middle;resizable=0;points=[];autosize=1;strokeColor=none;fillColor=none;fontColor=#1D3557;rounded=0;" parent="1" vertex="1">
          <mxGeometry x="290" y="175" width="70" height="40" as="geometry" />
        </mxCell>
        <mxCell id="N7hfXW6838dOeCNQ4Gz7-55" value="Pool" style="swimlane;childLayout=stackLayout;resizeParent=1;resizeParentMax=0;startSize=55;horizontal=0;horizontalStack=1;strokeColor=#457B9D;fontColor=#1D3557;fillColor=#A8DADC;" parent="1" vertex="1">
          <mxGeometry x="539" y="110" width="443" height="220" as="geometry" />
        </mxCell>
        <mxCell id="N7hfXW6838dOeCNQ4Gz7-56" value="Lane 1" style="swimlane;startSize=20;strokeColor=#457B9D;fontColor=#1D3557;fillColor=#A8DADC;" parent="N7hfXW6838dOeCNQ4Gz7-55" vertex="1">
          <mxGeometry x="55" width="148" height="220" as="geometry" />
        </mxCell>
        <mxCell id="N7hfXW6838dOeCNQ4Gz7-59" value="Lane 2" style="swimlane;startSize=20;strokeColor=#457B9D;fontColor=#1D3557;fillColor=#A8DADC;" parent="N7hfXW6838dOeCNQ4Gz7-56" vertex="1">
          <mxGeometry x="28" width="120" height="220" as="geometry" />
        </mxCell>
        <mxCell id="N7hfXW6838dOeCNQ4Gz7-57" value="Lane 2" style="swimlane;startSize=20;strokeColor=#457B9D;fontColor=#1D3557;fillColor=#A8DADC;" parent="N7hfXW6838dOeCNQ4Gz7-55" vertex="1">
          <mxGeometry x="203" width="120" height="220" as="geometry" />
        </mxCell>
        <mxCell id="N7hfXW6838dOeCNQ4Gz7-58" value="Lane 3" style="swimlane;startSize=20;strokeColor=#457B9D;fontColor=#1D3557;fillColor=#A8DADC;" parent="N7hfXW6838dOeCNQ4Gz7-55" vertex="1">
          <mxGeometry x="323" width="120" height="220" as="geometry" />
        </mxCell>
      </root>
    </mxGraphModel>
  </diagram>
</mxfile>
